HIERARCHY
ROOT Hips
{
  OFFSET 0 0 0
  CHANNELS 6 Xposition Yposition Zposition Zrotation Yrotation Xrotation
  JOINT LeftThigh
  {
    OFFSET 8.409438 0 -5.917753
    CHANNELS 3 Zrotation Yrotation Xrotation
    JOINT LeftLeg
    {
      OFFSET 0 0 -42.358652
      CHANNELS 3 Zrotation Yrotation Xrotation
      JOINT LeftFoot
      {
        OFFSET 0 0 -39.357303
        CHANNELS 3 Zrotation Yrotation Xrotation
      }
    }
  }
  JOINT RightThigh
  {
    OFFSET -8.409438 0 -5.917753
    CHANNELS 3 Zrotation Yrotation Xrotation
    JOINT RightLeg
    {
      OFFSET 0 0 -42.358652
      CHANNELS 3 Zrotation Yrotation Xrotation
      JOINT RightFoot
      {
        OFFSET 0 0 -39.357303
        CHANNELS 3 Zrotation Yrotation Xrotation
      }
    }
  }
  JOINT SpineLow
  {
    OFFSET 0 0 4.719101
    CHANNELS 3 Zrotation Yrotation Xrotation
    JOINT SpineMid
    {
      OFFSET 0 0 12.899191
      CHANNELS 3 Zrotation Yrotation Xrotation
      JOINT Chest
      {
        OFFSET 0 0 12.899191
        CHANNELS 3 Zrotation Yrotation Xrotation
        JOINT LeftShoulder
        {
          OFFSET 7.550562 1.41573 9.438202
          CHANNELS 3 Zrotation Yrotation Xrotation
          JOINT LeftArm
          {
            OFFSET 9.155056 0 4.247191
            CHANNELS 3 Zrotation Yrotation Xrotation
            JOINT LeftForearm
            {
              OFFSET 0 0 25.771955
              CHANNELS 3 Zrotation Yrotation Xrotation
              JOINT LeftHand
              {
                OFFSET 0 0 25.197169
                CHANNELS 3 Zrotation Yrotation Xrotation
              }
            }
          }
        }
        JOINT RightShoulder
        {
          OFFSET -7.550562 1.41573 9.438202
          CHANNELS 3 Zrotation Yrotation Xrotation
          JOINT RightArm
          {
            OFFSET -9.155056 0 4.247191
            CHANNELS 3 Zrotation Yrotation Xrotation
            JOINT RightForearm
            {
              OFFSET 0 0 -25.771955
              CHANNELS 3 Zrotation Yrotation Xrotation
              JOINT RightHand
              {
                OFFSET 0 0 -25.197169
                CHANNELS 3 Zrotation Yrotation Xrotation
              }
            }
          }
        }
        JOINT Neck
        {
          OFFSET 0 0 15.101124
          CHANNELS 3 Zrotation Yrotation Xrotation
          JOINT Head
          {
            OFFSET 0 0 11.325843
            CHANNELS 3 Zrotation Yrotation Xrotation
            End Site
            {
              OFFSET 0 0 14.157303
            }
          }
        }
      }
    }
  }
}
MOTION
Frames: 5
Frame Time: 0.0
0.0  101.685394  0.0  -2.421747  -32.948956  -106.073873  32.347218  -27.273408  10.342907  -11.018541  10.223488  27.630558  8.890784  5.132316  3.698237  -0.855417  2.292983  -4.926042  2.881909  10.809586  21.541471  23.076556  4.524897  -0.9526  -5.43361  -1.2064  3.947467  -15.009675  -2.385788  11.002283  -15.009676  -2.385788  11.002283  -16.976478  11.707926  -3.213289  57.979675  47.210411  95.289697  -19.741765  -38.606781  126.420496  130.655576  0.329781  -10.369668  11.285914  9.38912  17.788456  91.209882  3.912749  55.62958  -58.994817  2.540158  -99.028049  59.515329  33.318568  32.466868  29.586542  4.997708  0.293622  22.173358  3.773001  -0.022817  
0.0  101.685394  0.0  -1.290682  -33.830999  -106.622696  31.044971  -25.651438  11.507686  -9.344811  9.623574  27.753546  9.216812  5.217463  3.820111  0.353869  2.868755  -4.616431  3.082288  10.918774  20.930981  22.849788  4.507714  -1.053774  -5.497709  -1.097089  3.894995  -15.163979  -2.091084  10.835498  -15.163978  -2.091084  10.835498  -15.92493  12.555789  -3.145083  56.658621  49.312597  94.280564  -20.025787  -38.332442  125.692332  129.972993  -0.018585  -11.187699  11.8421  9.136079  17.743042  91.233351  3.843732  55.011161  -59.188427  3.173305  -99.214257  60.24536  32.830751  33.504033  29.958966  5.623865  0.940285  22.442483  4.276209  0.429001  
0.0  101.685394  0.0  -0.35786  -34.497442  -106.778116  29.966223  -23.882471  12.205424  -7.698829  8.858516  27.910763  9.310881  5.252803  3.888123  1.598172  3.361373  -4.586917  3.155941  10.977484  20.380137  22.4106  4.511193  -1.145125  -5.571774  -1.045276  3.794748  -15.354958  -1.961857  10.55237  -15.354957  -1.961857  10.552369  -14.824775  13.434404  -3.223483  55.797909  51.463872  93.836715  -20.044279  -37.569057  125.508214  129.61029  -0.407192  -11.865514  11.736933  8.55179  17.0766  91.908066  3.439591  55.094645  -59.049764  3.203051  -99.173254  60.526664  32.689486  34.087599  30.125321  6.047479  1.284356  22.560287  4.612239  0.664773  
0.0  101.685394  0.0  0.212258  -35.075051  -106.439844  28.992254  -22.243972  12.17103  -6.207502  8.136509  28.128363  9.543639  5.320605  4.030163  2.809138  3.665334  -4.895975  3.026555  11.023223  19.882441  21.999302  4.480471  -1.167281  -5.57437  -1.067827  3.67771  -15.363431  -2.049751  10.239814  -15.363432  -2.049751  10.239814  -14.274382  14.117106  -3.397279  55.526835  53.375099  93.808941  -20.262102  -36.606832  125.896216  129.391328  -0.964395  -12.305658  12.120202  8.331888  17.030673  91.951007  3.773812  54.796025  -58.494264  3.317468  -99.482885  60.745959  32.361974  35.076243  29.904159  6.231403  1.312915  22.3926  4.751306  0.679228  
0.0  101.685394  0.0  0.505242  -35.471421  -105.985745  28.171072  -20.965762  11.904432  -4.896418  7.547958  28.439699  9.701346  5.360421  4.076207  3.763861  3.912043  -5.285769  2.744403  10.987872  19.504144  21.641406  4.461781  -1.141717  -5.767194  -1.206153  3.534894  -15.908341  -2.428475  9.890097  -15.908342  -2.428475  9.890096  -12.490662  15.694802  -3.450674  55.180999  54.699374  93.913892  -20.620576  -35.979345  126.527246  129.248621  -1.451792  -12.682186  12.767294  8.762102  17.220265  92.814386  4.170725  55.103617  -58.644559  2.705932  -98.670339  60.857675  32.667905  34.4451  30.182671  6.565943  1.569015  22.595369  5.016474  0.851929  
